<?xml version="1.0"?>
<svg width="2000" height="2000" xmlns="http://www.w3.org/2000/svg" xmlns:svg="http://www.w3.org/2000/svg" enable-background="new 0 0 2000 2000" version="1.1" xml:space="preserve">
 <g class="layer">
  <title>Layer 1</title>
  <path d="m1431.6,629.27c0.68,0.2 1.35,0.4 2.51,1.01c10.85,6.45 21.21,12.49 31.58,18.53c4.59,2.96 9.19,5.92 14.15,9.39c1.66,1.27 2.95,2.03 4.24,2.79c0,0 -0.08,0.01 -0.07,0.31c2.69,2.44 5.38,4.57 8.07,6.71c0,0 -0.09,0 -0.05,0.3c5.04,5.77 10.04,11.24 15.05,16.71c0,0 -0.09,-0.01 -0.06,0.25c0.38,0.41 0.72,0.57 1.06,0.73c0,0 -0.07,-0.01 -0.09,0.29c0.35,0.42 0.72,0.54 1.09,0.67c0,0 -0.06,0.03 -0.15,0.38c0.31,0.62 0.72,0.89 1.12,1.17c0,0 -0.06,-0.01 -0.29,0.2c2.65,6.53 5.52,12.85 8.42,19.16c1.78,3.89 3.61,7.75 5.41,11.62c1.11,4.66 2.22,9.32 3.14,14.76c0.14,4.54 -0.63,8.88 1.01,11.94c4.56,8.55 10.12,16.57 15.29,24.8c0,0 -0.03,0.02 0.07,0.29c0.65,1.04 1.21,1.81 1.76,2.58c0,0 0.17,0.04 0.3,0.45c1.2,1.85 2.27,3.3 3.34,4.75c0,0 0.42,0.2 0.39,0.76c0.36,0.94 0.76,1.32 1.16,1.7c0.37,0.48 0.74,0.96 0.95,2.13c0.24,1.08 0.64,1.48 1.05,1.88c0.29,0.19 0.58,0.38 0.74,1.13c2.66,5.5 5.47,10.44 8.28,15.38c0,0 -0.11,-0.01 0.01,0.24c0.66,1.35 1.19,2.44 1.71,3.54c0,0 0.23,0.12 0.38,0.55c0.91,2 1.68,3.56 2.45,5.12c0.1,0.28 0.19,0.57 0.49,1.57c0.67,1.72 1.15,2.73 1.62,3.73c0,0 0.34,0.18 0.57,0.25c0.23,0.06 0.48,0.28 0.48,0.28c0,0 -0.14,0.29 -0.14,0.29c0.09,0.24 0.18,0.48 0.47,1.42c0.61,1.8 0.94,2.92 1.44,3.96c14.05,29.1 24.6,59.56 34.73,90.15c5.74,17.34 10.58,34.98 15.9,52.45c0.51,1.7 1.57,3.23 2.38,4.83c0.05,0.34 0.11,0.68 0.18,1.82c1.78,8.4 3.53,16.01 5.33,23.61c6.94,29.29 14.6,58.44 20.64,87.92c5.55,27.04 9.66,54.38 13.86,81.68c3.46,22.52 6.63,45.12 9,67.79c2.31,22.01 3.82,44.12 4.99,66.22c1.79,33.62 2.28,67.25 -2.64,100.72c-0.57,3.9 -0.61,7.88 -0.89,11.83c-0.08,0.91 -0.16,1.82 -0.55,3.38c-0.95,2.31 -1.81,3.92 -2.22,5.64c-5.94,25.02 -16.76,47.49 -33.96,66.85c-16.78,18.89 -38.8,28.84 -62.04,36.35c-19.19,6.2 -39,5.63 -58.76,2.52c-0.66,0.03 -1.31,0.05 -2.61,-0.24c-6.76,-2.77 -12.86,-5.31 -19.04,-7.6c-3.23,-1.2 -6.62,-1.96 -9.93,-2.92c0,0 0.09,-0.05 -0.1,-0.09c-0.91,-0.42 -1.62,-0.78 -2.34,-1.14c-5.44,-2.56 -10.88,-5.11 -16.77,-8.15c-4.23,-2.85 -8.01,-5.22 -11.79,-7.6c0,0 0.07,0 0.08,-0.31c-0.42,-0.81 -0.77,-1.41 -1.28,-1.81c-18.28,-14.44 -33.63,-31.57 -46.91,-50.65c-1.31,-1.88 -3.11,-3.41 -4.69,-5.11c0,0 -0.16,-0.03 -0.3,-0.31c-0.62,-0.71 -1.1,-1.13 -1.58,-1.55c-0.06,-0.23 -0.13,-0.46 -0.42,-1.27c-0.78,-1.07 -1.33,-1.56 -1.88,-2.04c0,0 0.08,0.02 0.11,-0.3c-7.04,-10.79 -14.08,-21.28 -21.17,-31.73c-19.44,-28.63 -38.89,-57.25 -58.34,-85.88c-11.21,-16.51 -22.23,-33.16 -33.76,-49.45c-3.57,-5.05 -8.53,-9.1 -12.86,-13.61c0,0 0.09,0 0.07,-0.29c-0.7,-0.76 -1.39,-1.24 -2.07,-1.71c0,0 0.09,0 0.06,-0.25c-0.38,-0.42 -0.72,-0.59 -1.06,-0.75c0,0 0.09,0 0.06,-0.3c-10.53,-11.43 -23.07,-19.53 -37.37,-25.63c-16.28,-8.36 -33.51,-12.06 -51.24,-12.69c-21.12,-0.75 -42.27,-0.58 -63.41,-0.57c-37.62,0.02 -75.23,0.33 -112.85,0.32c-43.46,-0.01 -86.92,-0.4 -130.38,-0.28c-18.97,0.04 -37.93,0.84 -56.89,1.51c-2.13,0.07 -4.22,1.47 -6.32,2.26c-1.19,0.14 -2.37,0.27 -4.32,0.29c-1.26,-0.12 -1.78,-0.21 -2.25,-0.1c-30,6.96 -55.35,21.71 -74.72,45.8c-8.74,10.88 -16.56,22.51 -24.48,34.02c-6.78,9.86 -13.11,20.03 -19.64,30.06c-2.37,3.72 -4.74,7.44 -7.28,11.56c-0.18,0.39 -0.48,0.36 -0.48,0.36c-0.1,0.13 -0.21,0.27 -0.69,0.78c-1.46,1.62 -2.67,2.78 -3.59,4.14c-7,10.44 -13.94,20.92 -20.89,31.39c-5.01,7.56 -10,15.14 -15,22.71c0,0 -0.22,0.38 -0.52,0.71c-0.7,1 -1.09,1.66 -1.49,2.32c0,0 -0.2,0.36 -0.55,0.68c-1.07,1.33 -1.79,2.35 -2.51,3.36c-2.33,3.7 -4.67,7.4 -7.47,11.54c-5.82,7.59 -11.28,14.66 -16.5,21.9c-17.4,24.15 -35.49,47.64 -60.75,64.37c0,0 -0.29,0.4 -0.61,0.71c-0.69,0.69 -1.06,1.08 -1.44,1.47c-0.28,0.09 -0.56,0.18 -1.29,0.56c-0.85,0.64 -1.25,0.97 -1.64,1.31c-1.56,1.07 -3.11,2.15 -5.3,3.31c-1.28,0.16 -1.98,0.09 -2.57,0.32c-12.37,4.83 -24.73,9.69 -37.08,14.59c-1.04,0.41 -1.94,1.2 -2.9,1.81c-0.57,0.12 -1.14,0.25 -2.51,0.33c-2.27,0.05 -3.76,0.05 -5.22,0.25c-15.92,2.15 -31.96,3.15 -47.54,-1.18c-10.83,-3.01 -21.58,-7 -31.57,-12.12c-10.25,-5.25 -20.25,-11.55 -29.08,-18.92c-14.17,-11.83 -24.69,-26.83 -32.32,-43.74c-0.33,-0.22 -0.67,-0.43 -1.08,-1.19c-0.64,-2.42 -1.21,-4.31 -1.77,-6.2c-2.65,-8.9 -5.94,-17.66 -7.84,-26.72c-5.16,-24.64 -6.49,-49.67 -6.37,-74.8c0.04,-7.3 -0.03,-14.59 -0.05,-21.89c0,-1.01 0,-2.03 0.23,-3.8c0.42,-1.74 0.71,-2.7 0.78,-3.68c2.39,-31.2 4,-62.49 7.34,-93.59c3.16,-29.43 8.04,-58.69 12.32,-88c1.83,-12.51 4.06,-24.95 6.11,-37.43c0.03,-0.22 0.05,-0.44 0.32,-1.25c1.41,-6.29 2.58,-11.98 3.88,-18.12c0.03,-1.67 -0.09,-2.88 -0.2,-4.09c0,0 -0.07,-0.03 0.25,-0.05c0.51,-0.36 0.7,-0.7 1.07,-1.27c0.39,-1.55 0.61,-2.86 0.94,-4.61c-0.01,-1.31 -0.13,-2.19 -0.24,-3.07c0,0 -0.1,-0.09 0.23,-0.19c0.53,-0.63 0.72,-1.16 1.1,-1.92c0.34,-1.25 0.49,-2.29 0.73,-3.62c0.16,-0.91 0.22,-1.52 0.48,-2.44c0.44,-0.94 0.72,-1.55 0.88,-2.18c6.5,-25.72 12.99,-51.43 19.46,-77.15c1.81,-7.19 3.54,-14.39 5.31,-21.59c0.18,-0.6 0.35,-1.2 0.84,-2.38c4.16,-12.43 7.95,-24.3 11.84,-36.14c11.4,-34.64 23.51,-68.99 40.01,-101.62c1.32,-2.62 2.08,-5.52 3.11,-8.29c0,0 0.01,0.09 0.29,0.01c3.42,-6.06 6.57,-12.03 9.71,-18.01c0,0 0.01,0.09 0.29,0.02c3.44,-5.39 6.58,-10.7 9.73,-16.01c0,0 0.04,0.1 0.13,-0.18c0.98,-1.72 1.88,-3.18 2.77,-4.63c0,0 0.13,-0.26 0.43,-0.56c7.33,-9.1 11.81,-18.69 13.41,-30.23c2.99,-21.59 11.58,-41.04 26.21,-57.55c2.5,-2.82 4.7,-5.9 7.04,-8.86c0,0 0,0.09 0.31,0.07c9.63,-6.87 18.6,-14.29 28.38,-20.42c11.61,-7.29 23.91,-13.47 35.92,-20.13c0,0 0.26,-0.36 0.79,-0.59c7.54,-3.17 14.56,-6.11 21.95,-9.08c3.52,-1.03 6.66,-2.04 9.8,-3.02c10.37,-3.22 20.75,-6.43 31.54,-9.65c9.08,-1.49 17.71,-3.16 26.41,-4.4c20.25,-2.89 40.55,-5.04 60.93,-1.09c5.01,0.97 9.96,2.3 14.93,3.47c1.31,0.82 2.61,1.65 4.25,2.69c0.67,0.47 1.01,0.74 1.36,1.01c0,0 0.36,0.11 0.7,0.28c0.73,0.38 1.11,0.59 1.49,0.81c0,0 0.34,0.17 0.64,0.44c0.92,0.65 1.54,1.05 2.16,1.44c0,0 0.34,0.12 0.65,0.5c5.09,4.2 9.83,8.09 14.67,11.83c2.3,1.77 4.79,3.28 7.19,4.91c0,0 -0.08,0.01 -0.06,0.27c0.36,0.43 0.71,0.59 1.06,0.75c0,0 -0.09,0 -0.07,0.27c0.66,0.77 1.3,1.26 1.95,1.75c2.95,3.5 5.91,6.99 9.17,11.02c0.84,1.02 1.39,1.51 1.93,2c0,0 -0.09,-0.02 -0.05,0.24c0.38,0.41 0.73,0.56 1.08,0.7c0,0 -0.07,0 -0.16,0.32c6.87,10.62 16.62,15.64 29.01,15.64c120.54,0.02 241.09,0 361.63,0.1c9.22,0.01 17.14,-2.95 23.5,-9.25c10.48,-10.39 20.5,-21.25 30.7,-31.94c0.2,-0.2 0.17,-0.62 0.24,-0.94c0,0 0,0.09 0.32,0.1c1.17,-0.48 2.14,-0.85 2.88,-1.49c17.1,-14.79 37.45,-19.4 59.39,-18.92c29.8,0.65 58.93,5.54 87.14,15.11c14.29,4.84 28.21,10.8 42.3,16.26c0,0 -0.02,0.07 0.02,-0.07c0.04,-0.15 0.46,-0.05 0.46,-0.05c0,0 0.08,0.41 0.08,0.41m-428.09,344.69c-19.73,-25.14 -39.63,-50.13 -59.11,-75.46c-17.06,-22.18 -33.56,-44.78 -50.44,-67.1c-18.48,-24.43 -37.19,-48.68 -55.64,-73.13c-12.84,-17.02 -25.41,-34.25 -38.09,-51.39c-5.05,-6.83 -11.67,-11.06 -19.92,-13.3c-22.54,-6.1 -45.54,-5.7 -68.53,-5.27c-36.75,0.67 -71.97,8.64 -105.71,23.2c-23.59,10.18 -45.31,23.3 -63.86,41.24c-13.01,12.57 -23.18,27.39 -33.04,42.48c-17.41,26.65 -30.63,55.4 -42.04,84.92c-8.41,21.73 -15.89,43.88 -22.53,66.21c-9.49,31.91 -18.54,63.99 -26.47,96.32c-6.74,27.47 -12.02,55.33 -17.24,83.15c-4.34,23.07 -8.4,46.24 -11.25,69.52c-3.62,29.58 -6.26,59.3 -8.65,89.01c-3,37.1 -3.85,74.22 4.03,110.96c1.61,7.47 3.02,15.14 5.94,22.13c6.47,15.48 15.76,29.14 28.61,40.29c15.5,13.45 33.4,20.48 53.73,18.37c27.28,-2.84 50.03,-15.57 68.27,-35.93c7.21,-8.04 13.88,-16.64 20.05,-25.5c19.51,-28.01 38.73,-56.22 57.93,-84.43c14.06,-20.65 28.28,-41.2 41.76,-62.22c12.9,-20.12 26.72,-39.29 44.73,-55.3c35.72,-31.73 77.24,-48.51 125.01,-49.08c34.5,-0.41 69,0.04 103.5,-0.13c22.81,-0.12 45.63,-0.66 69.37,-0.91c17.99,0.32 35.97,0.88 53.95,0.91c30.66,0.06 61.32,-0.35 91.98,-0.3c14.32,0.02 28.72,-0.25 42.92,1.19c31.37,3.16 60.14,13.95 86.42,31.56c20.59,13.8 38.19,30.7 52.36,50.87c18.18,25.89 35.44,52.42 53.26,78.57c21.47,31.51 42.94,63.02 64.72,94.31c13.71,19.7 29.03,37.67 52.09,47.43c16.01,6.78 32.36,11.2 49.56,7.9c30.41,-5.85 49.5,-26.01 62.49,-52.67c10.67,-21.89 13.7,-45.72 13.76,-69.6c0.07,-29.11 -0.67,-58.33 -3.14,-87.33c-3.22,-37.81 -7.45,-75.59 -13.15,-113.1c-5.38,-35.37 -12.23,-70.6 -20.23,-105.49c-12.81,-55.88 -28.27,-111.1 -49.61,-164.44c-7.85,-19.61 -16.29,-39.07 -25.84,-57.91c-7.65,-15.09 -17.12,-29.29 -26.27,-43.58c-9.59,-14.97 -21.31,-28.31 -35.48,-39.03c-29.93,-22.64 -63.5,-37.89 -100.15,-45.69c-17.05,-3.62 -34.47,-6.06 -51.85,-7.41c-22.62,-1.76 -45.25,-0.62 -67.73,3.29c-11.98,2.09 -20.61,8.19 -27.7,17.78c-23.35,31.6 -46.89,63.06 -70.53,94.45c-18.53,24.6 -37.28,49.05 -55.99,73.52c-15.38,20.11 -30.74,40.23 -46.32,60.18c-9.62,12.32 -19.64,24.35 -29.93,35.94m-145.93,-257.03c12.89,17.16 25.79,34.32 38.69,51.48c14.39,19.16 28.67,38.39 43.19,57.45c20.07,26.35 40.33,52.54 60.47,78.84c3.95,5.16 4.26,5.29 8.32,-0.05c12.78,-16.83 25.49,-33.7 38.24,-50.56c18.37,-24.3 36.74,-48.6 55.13,-72.89c14.37,-18.97 28.81,-37.9 43.15,-56.9c4.86,-6.44 9.49,-13.06 14.89,-20.51c-3.01,-0.37 -4.88,-0.79 -6.75,-0.79c-19.1,-0.07 -38.2,-0.08 -57.29,-0.08c-79.81,0.02 -159.62,0.05 -239.43,0.1c-2.21,0 -4.42,0.36 -8.15,0.68c3.6,4.97 6.37,8.8 9.54,13.23m-249.17,-61.94c-20.04,8.35 -39.02,18.72 -57.07,30.72c-4.82,3.2 -9.31,7.06 -13.28,11.25c-1.54,1.62 -2.4,5.61 -1.45,7.4c1.14,2.12 4.55,4.18 6.97,4.16c2.82,-0.02 5.98,-1.84 8.38,-3.68c27.63,-21.1 58.43,-35.95 91.73,-45.29c23.91,-6.71 48.3,-11.39 73.44,-10.08c6.34,0.32 10.34,-3.13 10.25,-7.77c-0.1,-4.98 -4.09,-8.26 -10.51,-8.26c-3.82,-0.01 -7.64,0.54 -11.46,0.68c-33.3,1.24 -65.24,8.87 -97,20.87m748.84,3.07c11.11,3.48 22.46,6.35 33.28,10.56c23.51,9.15 45.6,21.04 65.82,36.27c1.84,1.38 3.98,3.13 6.05,3.24c2.7,0.14 6.56,-0.36 7.91,-2.12c1.34,-1.76 0.89,-5.69 -0.07,-8.16c-0.88,-2.28 -3.2,-4.36 -5.39,-5.72c-15.23,-9.48 -30.1,-19.7 -46.02,-27.87c-27.88,-14.29 -57.63,-23.47 -88.8,-27.38c-13.36,-1.68 -26.81,-2.63 -40.25,-3.41c-5.62,-0.32 -9.75,4.01 -9.65,8.69c0.09,4.49 3.36,6.87 9.72,6.8c22.63,-0.25 44.76,3.2 67.4,9.1z" fill="#0D2240" id="svg_2" opacity="1"/>
  <path d="m809.9,1216.62c1.72,-0.8 3.81,-2.2 5.94,-2.27c18.96,-0.67 37.92,-1.47 56.89,-1.51c43.46,-0.12 86.92,0.27 130.38,0.28c37.62,0.01 75.23,-0.3 112.85,-0.32c21.14,-0.01 42.29,-0.18 63.41,0.57c17.73,0.63 34.96,4.33 51.07,12.84c-0.16,0.56 -0.41,0.73 -0.67,0.89c-7.47,-2.61 -14.8,-5.86 -22.47,-7.66c-8.98,-2.12 -18.26,-4.18 -27.41,-4.2c-118.03,-0.28 -236.06,-0.21 -354.09,-0.13c-5.17,0.01 -10.35,0.99 -15.9,1.51z" fill="#657386" id="svg_3" opacity="1"/>
  <path d="m1674.39,1411.82c-0.08,-3.76 -0.04,-7.74 0.53,-11.64c4.92,-33.47 4.43,-67.1 2.64,-100.72c-1.17,-22.1 -2.68,-44.21 -4.99,-66.22c-2.37,-22.67 -5.54,-45.27 -9,-67.79c-4.2,-27.3 -8.31,-54.64 -13.86,-81.68c-6.04,-29.48 -13.7,-58.63 -20.64,-87.92c-1.8,-7.6 -3.55,-15.21 -5.31,-23.1c3.77,12.38 7.95,24.94 11.21,37.74c4.98,19.57 9.59,39.25 13.84,58.99c3.18,14.72 5.5,29.63 8.25,44.44c1.6,8.59 3.53,17.13 4.87,25.75c1.91,12.21 3.37,24.48 5.11,36.71c1.59,11.1 3.45,22.16 4.88,33.27c1,7.77 1.4,15.62 2.18,23.43c0.92,9.24 2.03,18.47 2.91,27.72c0.52,5.56 0.81,11.15 1.08,16.73c0.37,7.58 0.61,15.17 0.93,22.75c0.7,16.49 2.19,32.99 1.89,49.47c-0.26,14.84 -2.4,29.66 -3.86,44.48c-0.57,5.82 -1.53,11.6 -2.66,17.59z" fill="#697689" id="svg_4" opacity="1"/>
  <path d="m1238.65,617.94c0.29,0.3 0.32,0.72 0.12,0.92c-10.2,10.69 -20.22,21.55 -30.7,31.94c-6.36,6.3 -14.28,9.26 -23.5,9.25c-120.54,-0.1 -241.09,-0.08 -361.63,-0.1c-12.39,0 -22.14,-5.02 -29.01,-15.68c5.84,4.43 10.71,10.56 18.49,12.26c4.91,1.07 9.91,2.38 14.87,2.39c118.31,0.12 236.62,0.11 354.93,0.06c14.72,-0.01 24.81,-8.14 33.84,-18.96c6.67,-7.97 14.77,-14.75 22.59,-22.08z" fill="#697689" id="svg_5" opacity="1"/>
  <path d="m354.63,1094.08c-1.69,12.3 -3.92,24.74 -5.75,37.25c-4.28,29.31 -9.16,58.57 -12.32,88c-3.34,31.1 -4.95,62.39 -7.34,93.59c-0.07,0.98 -0.36,1.94 -0.65,3.18c0.03,-12 -0.3,-24.29 0.42,-36.53c0.84,-14.33 2.61,-28.61 3.94,-42.92c0.7,-7.49 1.25,-15 2.03,-22.49c0.96,-9.24 1.95,-18.49 3.19,-27.7c1.07,-8.04 2.47,-16.03 3.78,-24.04c1.95,-11.83 3.97,-23.66 5.93,-35.49c1.7,-10.24 3.35,-20.49 5.09,-30.72c0.12,-0.71 0.87,-1.31 1.68,-2.13z" fill="#657386" id="svg_6" opacity="1"/>
  <path d="m1516.81,1526.9c19.45,2.96 39.26,3.53 58.45,-2.67c23.24,-7.51 45.26,-17.46 62.04,-36.35c17.2,-19.36 28.02,-41.83 33.96,-66.85c0.41,-1.72 1.27,-3.33 2.1,-5.2c-1.46,12.92 -5.72,25.2 -11.19,37.22c-7.27,15.94 -17.19,29.93 -29.71,42.06c-10.49,10.18 -22.55,18.06 -36.38,23.02c-10.01,3.59 -19.84,8.14 -30.17,10.3c-12.09,2.54 -24.59,4.46 -37.08,1.67c-3.94,-0.88 -7.81,-2.02 -12.02,-3.2z" fill="#697689" id="svg_7" opacity="1"/>
  <path d="m1270.94,1255.35c4.31,4.15 9.27,8.2 12.84,13.25c11.53,16.29 22.55,32.94 33.76,49.45c19.45,28.63 38.9,57.25 58.34,85.88c7.09,10.45 14.13,20.94 21.16,31.77c-4.06,-4.89 -8.31,-9.99 -12.06,-15.43c-13.79,-20.05 -27.43,-40.2 -41.09,-60.33c-11.67,-17.19 -23.21,-34.46 -34.96,-51.6c-10.3,-15.03 -20.76,-29.95 -31.27,-44.84c-1.96,-2.79 -4.45,-5.21 -6.72,-8.15z" fill="#697689" id="svg_8" opacity="1"/>
  <path d="m1431.01,628.6c-14.06,-5.08 -27.98,-11.04 -42.27,-15.88c-28.21,-9.57 -57.34,-14.46 -87.14,-15.11c-21.94,-0.48 -42.29,4.13 -59.39,18.92c-0.74,0.64 -1.71,1.01 -2.93,1.49c8.51,-9.86 19.82,-15.52 32.34,-19.12c14.84,-4.26 30.1,-3.33 45.16,-2.78c10.11,0.38 20.19,2.88 30.19,4.86c12.18,2.4 24.49,4.54 36.34,8.11c13.1,3.96 25.79,9.32 38.59,14.26c3.18,1.23 6.06,3.23 9.11,5.25z" fill="#697689" id="svg_9" opacity="1"/>
  <path d="m345.35,1451.55c7.6,16.56 18.12,31.56 32.29,43.39c8.83,7.37 18.83,13.67 29.08,18.92c9.99,5.12 20.74,9.11 31.57,12.12c15.58,4.33 31.62,3.33 47.54,1.18c1.46,-0.2 2.95,-0.2 4.79,-0.21c-3.47,1.1 -7.28,2.85 -11.15,2.99c-10.65,0.41 -21.41,0.97 -31.96,-0.14c-7.16,-0.76 -14.09,-4.1 -21.04,-6.53c-7.35,-2.57 -14.64,-5.29 -21.86,-8.2c-11.55,-4.66 -21.58,-11.97 -30.26,-20.56c-8.23,-8.15 -15.36,-17.54 -22.15,-26.97c-3.25,-4.51 -4.61,-10.38 -6.85,-15.99z" fill="#697689" id="svg_10" opacity="1"/>
  <path d="m684.35,1326.48c6.29,-9.83 12.62,-20 19.4,-29.86c7.92,-11.51 15.74,-23.14 24.48,-34.02c19.37,-24.09 44.72,-38.84 74.72,-45.8c0.47,-0.11 0.99,-0.02 1.8,0.11c-7.26,2.82 -15.01,5.13 -22.38,8.29c-14.07,6.02 -27.16,13.55 -38.89,23.72c-14.07,12.19 -23.67,27.68 -34.12,42.59c-7.26,10.36 -14.15,20.97 -21.29,31.41c-0.89,1.3 -2.3,2.24 -3.72,3.56z" fill="#697689" id="svg_11" opacity="1"/>
  <path d="m444.65,804.04c-0.68,2.65 -1.44,5.55 -2.76,8.17c-16.5,32.63 -28.61,66.98 -40.01,101.62c-3.89,11.84 -7.68,23.71 -11.71,35.85c3.92,-14.02 7.44,-28.52 12.29,-42.57c8.39,-24.24 17.26,-48.34 26.65,-72.22c4.16,-10.6 10.07,-20.51 15.54,-30.85z" fill="#697689" id="svg_12" opacity="1"/>
  <path d="m1623.56,970.07c-0.81,-1.25 -1.87,-2.78 -2.38,-4.48c-5.32,-17.47 -10.16,-35.11 -15.9,-52.45c-10.13,-30.59 -20.68,-61.05 -34.73,-90.15c-0.5,-1.04 -0.83,-2.16 -1.37,-3.59c0.89,1.02 2.2,2.23 2.9,3.73c4.33,9.37 8.94,18.64 12.68,28.24c6.95,17.84 13.76,35.75 19.9,53.87c6.15,18.15 11.48,36.57 17.04,54.91c0.94,3.1 1.26,6.38 1.86,9.92z" fill="#697689" id="svg_13" opacity="1"/>
  <path d="m328.03,1320.75c0.2,6.95 0.27,14.24 0.23,21.54c-0.12,25.13 1.21,50.16 6.37,74.8c1.9,9.06 5.19,17.82 7.84,26.72c0.56,1.89 1.13,3.78 1.59,5.96c-3.78,-10.15 -8.24,-20.39 -10.92,-31.09c-2.67,-10.63 -3.66,-21.7 -5.15,-32.61c-0.66,-4.86 -0.91,-9.8 -1.09,-14.71c-0.43,-11.56 -0.95,-23.14 -0.93,-34.71c0,-5.19 1.22,-10.37 2.06,-15.9z" fill="#697689" id="svg_14" opacity="1"/>
  <path d="m546.71,1502.49c24.94,-16.72 43.03,-40.21 60.43,-64.36c5.22,-7.24 10.68,-14.31 16.29,-21.59c-1.63,3.21 -3.14,6.85 -5.45,9.87c-11.8,15.4 -23.3,31.08 -35.92,45.8c-8.4,9.81 -18.4,18.29 -27.92,27.11c-1.8,1.67 -4.71,2.13 -7.43,3.17z" fill="#697689" id="svg_15" opacity="1"/>
  <path d="m514.65,667.94c-1.98,2.94 -4.18,6.02 -6.68,8.84c-14.63,16.51 -23.22,35.96 -26.21,57.55c-1.6,11.54 -6.08,21.13 -13.28,30.17c1.93,-3.64 3.88,-7.59 6.17,-11.33c4.78,-7.78 3.94,-16.91 6.27,-25.27c2.53,-9.11 4.36,-18.32 9.98,-26.42c4.69,-6.74 7.62,-14.68 12.16,-21.54c2.98,-4.5 7.43,-8.02 11.59,-12z" fill="#697689" id="svg_16" opacity="1"/>
  <path d="m389.03,952.67c-1.6,6.88 -3.33,14.08 -5.14,21.27c-6.47,25.72 -12.96,51.43 -19.46,77.15c-0.16,0.63 -0.44,1.24 -0.98,1.74c-0.38,-0.41 -0.45,-0.71 -0.51,-1c2.12,-9.94 3.92,-19.96 6.45,-29.79c5.31,-20.61 10.97,-41.12 16.58,-61.65c0.69,-2.54 1.92,-4.93 3.06,-7.72z" fill="#657386" id="svg_17" opacity="1"/>
  <path d="m745.9,602.69c-4.9,-0.78 -9.85,-2.11 -14.86,-3.08c-20.38,-3.95 -40.68,-1.8 -60.93,1.09c-8.7,1.24 -17.33,2.91 -26.81,4.37c-1.37,-0.05 -1.9,-0.09 -2.44,-0.12c7.46,-1.67 14.91,-3.44 22.4,-4.99c18.43,-3.82 37.15,-5.08 55.84,-3.79c9.01,0.62 17.83,4.01 26.8,6.52z" fill="#697689" id="svg_18" opacity="1"/>
  <path d="m1401.21,1441.46c1.49,1.37 3.29,2.9 4.6,4.78c13.28,19.08 28.63,36.21 46.91,50.65c0.51,0.4 0.86,1 1.28,1.85c-5.11,-3.57 -10.53,-7.13 -15.26,-11.45c-13.68,-12.5 -25.06,-27.05 -35.99,-41.94c-0.74,-1 -0.98,-2.36 -1.54,-3.89z" fill="#697689" id="svg_19" opacity="1"/>
  <path d="m579.29,627.52c-11.68,6.58 -23.98,12.76 -35.59,20.05c-9.78,6.13 -18.75,13.55 -28.42,20.42c1.53,-2.06 3.19,-4.4 5.33,-6.18c15.84,-13.12 33.51,-23.38 51.79,-32.63c1.95,-0.99 4.36,-1.08 6.89,-1.66z" fill="#697689" id="svg_20" opacity="1"/>
  <path d="m636.42,1397.42c4.76,-7.37 9.75,-14.95 14.76,-22.51c6.95,-10.47 13.89,-20.95 20.89,-31.39c0.92,-1.36 2.13,-2.52 3.38,-4c-3.88,6.74 -7.62,13.93 -12.06,20.65c-6.79,10.32 -14.02,20.34 -21.15,30.42c-1.67,2.35 -3.71,4.44 -5.82,6.83z" fill="#657386" id="svg_21" opacity="1"/>
  <path d="m493.92,1526.6c0.6,-0.63 1.5,-1.42 2.54,-1.83c12.35,-4.9 24.71,-9.76 37.08,-14.59c0.59,-0.23 1.29,-0.16 2.24,-0.21c-3.02,1.9 -6.19,4.22 -9.73,5.54c-10.51,3.91 -20.13,10.41 -32.13,11.09z" fill="#697689" id="svg_22" opacity="1"/>
  <path d="m1229.96,1227.42c0.07,-0.48 0.32,-0.65 0.73,-0.99c14.22,5.73 26.76,13.83 37.29,25.31c-2.95,-1.77 -5.91,-3.92 -8.93,-5.97c-6.79,-4.6 -13.55,-9.24 -20.45,-13.67c-2.65,-1.71 -5.62,-2.92 -8.64,-4.68z" fill="#697689" id="svg_23" opacity="1"/>
  <path d="m640.45,604.96c0.95,0.02 1.48,0.06 2.43,0.12c-9.97,3.24 -20.35,6.45 -30.72,9.67c-3.14,0.98 -6.28,1.99 -9.81,2.76c-0.42,-0.4 -0.42,-0.57 -0.43,-0.75c12.7,-3.93 25.41,-7.86 38.53,-11.8z" fill="#657386" id="svg_24" opacity="1"/>
  <path d="m1542.97,770.61c-5.11,-7.85 -10.67,-15.87 -15.23,-24.42c-1.64,-3.06 -0.87,-7.4 -1.06,-11.51c0.47,2.56 0.15,5.76 1.3,8.3c2.49,5.52 5.72,10.7 8.66,16.01c2.08,3.75 4.18,7.49 6.33,11.62z" fill="#657386" id="svg_25" opacity="1"/>
  <path d="m1465.75,648.46c-10.43,-5.69 -20.79,-11.73 -31.33,-18.03c4.51,1.67 9.4,3.2 13.8,5.62c5.91,3.23 11.45,7.13 17.12,10.8c0.3,0.2 0.33,0.84 0.41,1.61z" fill="#697689" id="svg_26" opacity="1"/>
  <path d="m1485.09,1516.31c3.14,0.64 6.53,1.4 9.76,2.6c6.18,2.29 12.28,4.83 18.56,7.52c-9.29,-3.1 -18.72,-6.45 -28.32,-10.12z" fill="#697689" id="svg_27" opacity="1"/>
  <path d="m1523.55,719.17c-1.76,-3.55 -3.59,-7.41 -5.37,-11.3c-2.9,-6.31 -5.77,-12.63 -8.4,-19.18c3.58,6.49 7.06,13.16 10.2,19.99c1.5,3.24 2.37,6.77 3.57,10.49z" fill="#657386" id="svg_28" opacity="1"/>
  <path d="m778.97,626.67c-2.29,-1.31 -4.78,-2.82 -7.08,-4.59c-4.84,-3.74 -9.58,-7.63 -14.55,-11.69c3.46,1.86 7.35,3.62 10.69,6.14c3.87,2.93 7.24,6.51 10.94,10.14z" fill="#697689" id="svg_29" opacity="1"/>
  <path d="m601.53,616.84c0.4,0.1 0.4,0.27 0.43,0.7c-6.99,3.2 -14.01,6.14 -21.36,9.19c4.51,-2.52 9.32,-5.25 14.25,-7.73c1.95,-0.98 4.19,-1.41 6.68,-2.16z" fill="#697689" id="svg_30" opacity="1"/>
  <path d="m1507.05,684.65c-4.98,-5.1 -9.98,-10.57 -15.02,-16.39c3.96,3.51 8.05,7.28 11.93,11.25c1.29,1.33 2.06,3.17 3.09,5.14z" fill="#697689" id="svg_31" opacity="1"/>
  <path d="m454.66,786.04c-2.8,5.86 -5.95,11.83 -9.41,17.89c2.8,-5.86 5.94,-11.82 9.41,-17.89z" fill="#697689" id="svg_32" opacity="1"/>
  <path d="m464.64,769.94c-2.77,5.3 -5.91,10.61 -9.39,16c2.79,-5.27 5.9,-10.63 9.39,-16z" fill="#697689" id="svg_33" opacity="1"/>
  <path d="m359.06,1074.98c-1.17,5.69 -2.34,11.38 -3.65,17.35c0.18,-3.76 0.52,-7.79 1.37,-12.39c0.74,-1.74 0.95,-2.91 1.17,-4.09c0,0 0.09,-0.43 0.38,-0.65c0.29,-0.21 0.73,-0.22 0.73,-0.22z" fill="#657386" id="svg_34" opacity="1"/>
  <path d="m1561.03,801.65c-2.77,-4.55 -5.58,-9.49 -8.2,-14.82c2.84,4.55 5.5,9.49 8.2,14.82z" fill="#697689" id="svg_35" opacity="1"/>
  <path d="m1454.03,1499.34c3.67,2.05 7.45,4.42 11.37,7.06c-3.67,-2.07 -7.46,-4.4 -11.37,-7.06z" fill="#697689" id="svg_36" opacity="1"/>
  <path d="m1492.07,667.64c-2.68,-1.77 -5.37,-3.9 -8.06,-6.38c2.67,1.77 5.36,3.89 8.06,6.38z" fill="#697689" id="svg_37" opacity="1"/>
  <path d="m1565.58,811.2c-0.73,-1.27 -1.5,-2.83 -2.37,-4.7c0.7,1.26 1.51,2.84 2.37,4.7z" fill="#697689" id="svg_38" opacity="1"/>
  <path d="m1548.21,778.83c-0.78,-1.22 -1.85,-2.67 -3.03,-4.44c0.83,1.2 1.79,2.71 3.03,4.44z" fill="#657386" id="svg_39" opacity="1"/>
  <path d="m1483.97,660.67c-1.18,-0.44 -2.47,-1.2 -3.84,-2.28c1.18,0.44 2.45,1.2 3.84,2.28z" fill="#697689" id="svg_40" opacity="1"/>
  <path d="m631.34,1404.52c0.49,-0.84 1.21,-1.86 2.11,-3.07c-0.51,0.84 -1.2,1.87 -2.11,3.07z" fill="#657386" id="svg_41" opacity="1"/>
  <path d="m361.14,1064.95c-0.22,1.31 -0.44,2.62 -0.86,3.72c-0.26,-1.08 -0.3,-1.96 -0.34,-2.85c0,0 0.07,-0.42 0.39,-0.63c0.48,-0.22 0.64,-0.23 0.81,-0.24z" fill="#657386" id="svg_42" opacity="1"/>
  <path d="m467.66,765.31c-0.63,1.26 -1.53,2.72 -2.56,4.46c0.67,-1.23 1.48,-2.76 2.56,-4.46z" fill="#697689" id="svg_43" opacity="1"/>
  <path d="m1562.72,805.52c-0.45,-0.8 -0.98,-1.89 -1.63,-3.29c0.44,0.79 1,1.89 1.63,3.29z" fill="#697689" id="svg_44" opacity="1"/>
  <path d="m1567.67,816.51c-0.41,-0.72 -0.89,-1.73 -1.48,-3c0.4,0.72 0.92,1.72 1.48,3z" fill="#697689" id="svg_45" opacity="1"/>
  <path d="m1482.74,1514.89c0.46,0.23 1.17,0.59 2.1,1.05c-0.46,-0.25 -1.15,-0.59 -2.1,-1.05z" fill="#697689" id="svg_46" opacity="1"/>
  <path d="m756.4,609.59c-0.45,-0.23 -1.07,-0.63 -1.88,-1.13c0.44,0.25 1.08,0.61 1.88,1.13z" fill="#697689" id="svg_47" opacity="1"/>
  <path d="m1544.78,773.58c-0.47,-0.49 -1.03,-1.26 -1.67,-2.32c0.46,0.49 1.02,1.27 1.67,2.32z" fill="#657386" id="svg_48" opacity="1"/>
  <path d="m634.36,1400.49c0.21,-0.5 0.6,-1.16 1.13,-2.02c-0.23,0.49 -0.58,1.17 -1.13,2.02z" fill="#657386" id="svg_49" opacity="1"/>
  <path d="m362.16,1059.55c-0.2,0.54 -0.39,1.07 -0.89,1.64c-0.24,-1.61 -0.18,-3.26 0.27,-5.08c0.4,-0.17 0.51,-0.07 0.51,0.37c0.04,1.32 0.08,2.19 0.11,3.07z" fill="#697689" id="svg_50" opacity="1"/>
  <path d="m357.6,1076.02c0.13,1.01 -0.08,2.18 -0.5,3.66c-0.09,-0.96 0.03,-2.23 0.5,-3.66z" fill="#697689" id="svg_51" opacity="1"/>
  <path d="m781.99,629.66c-0.68,-0.12 -1.32,-0.61 -1.98,-1.42c0.66,0.13 1.34,0.59 1.98,1.42z" fill="#697689" id="svg_52" opacity="1"/>
  <path d="m359.19,1074.53c-0.13,0.45 -0.57,0.46 -0.79,0.46c-0.15,-1.33 -0.08,-2.66 0.29,-4.27c0.41,0.93 0.53,2.14 0.5,3.81z" fill="#697689" id="svg_53" opacity="1"/>
  <path d="m359.58,1066.02c0.4,0.69 0.44,1.57 0.52,2.89c-0.16,0.78 -0.35,1.12 -0.85,1.44c-0.21,-1.38 -0.12,-2.76 0.33,-4.33z" fill="#697689" id="svg_54" opacity="1"/>
  <path d="m1268.93,1253.37c0.67,0.09 1.36,0.57 2.06,1.37c-0.67,-0.11 -1.35,-0.55 -2.06,-1.37z" fill="#697689" id="svg_55" opacity="1"/>
  <path d="m362.59,1051.99c0.41,0.13 0.48,0.43 0.65,1.16c0.05,1.04 -0.01,1.65 -0.4,2.57c-0.33,0.3 -0.79,0.32 -0.79,0.32c0,0 -0.11,-0.1 -0.16,-0.15c0.08,-1.28 0.22,-2.51 0.7,-3.9z" fill="#697689" id="svg_56" opacity="1"/>
  <path d="m541.49,1506.38c0.31,-0.17 0.71,-0.5 1.13,-1.04c-0.34,0.15 -0.69,0.51 -1.13,1.04z" fill="#697689" id="svg_57" opacity="1"/>
  <path d="m1399.39,1439.46c0.33,0.23 0.81,0.65 1.42,1.28c-0.33,-0.23 -0.8,-0.66 -1.42,-1.28z" fill="#697689" id="svg_58" opacity="1"/>
  <path d="m1397.11,1436.17c0.38,0.27 0.93,0.76 1.66,1.47c-0.38,-0.27 -0.93,-0.77 -1.66,-1.47z" fill="#697689" id="svg_59" opacity="1"/>
  <path d="m544.47,1504.52c0.25,-0.23 0.62,-0.62 1.11,-1.17c-0.26,0.22 -0.62,0.61 -1.11,1.17z" fill="#697689" id="svg_60" opacity="1"/>
  <path d="m361.25,1064.51c-0.28,0.45 -0.44,0.46 -0.86,0.47c-0.16,-0.99 -0.07,-2 0.32,-3.27c0.41,0.61 0.53,1.49 0.54,2.8z" fill="#697689" id="svg_61" opacity="1"/>
  <path d="m792.88,642.84c-0.36,-0.28 -0.91,-0.77 -1.63,-1.47c0.37,0.28 0.91,0.77 1.63,1.47z" fill="#697689" id="svg_62" opacity="1"/>
  <path d="m753.61,607.72c-0.22,-0.07 -0.6,-0.28 -1.2,-0.52c0.2,0.1 0.62,0.24 1.2,0.52z" fill="#697689" id="svg_63" opacity="1"/>
  <path d="m751.4,606.69c-0.17,-0.18 -0.51,-0.45 -1.06,-0.6c0.16,0.24 0.53,0.38 1.06,0.6z" fill="#697689" id="svg_64" opacity="1"/>
  <path d="m1552.03,785.12c-0.39,0.01 -0.79,-0.39 -1.11,-1.24c0.42,-0.02 0.75,0.41 1.11,1.24z" fill="#657386" id="svg_65" opacity="1"/>
  <path d="m1508,685.73c-0.26,0.11 -0.6,-0.05 -0.98,-0.5c0.28,-0.13 0.59,0.05 0.98,0.5z" fill="#657386" id="svg_66" opacity="1"/>
  <path d="m676.37,1338.56c-0.02,0.04 0.28,0.07 0.23,-0.02c-0.05,-0.1 -0.21,-0.02 -0.23,0.02z" fill="#657386" id="svg_67" opacity="1"/>
  <path d="m1268,1252.25c0.26,-0.1 0.6,0.07 0.98,0.53c-0.27,0.11 -0.58,-0.08 -0.98,-0.53z" fill="#697689" id="svg_68" opacity="1"/>
  <path d="m1568.59,817.56c0.05,0.05 0.19,-0.24 0.19,-0.24c0,0 -0.25,-0.22 -0.37,-0.13c-0.13,0.1 0.12,0.31 0.18,0.37z" fill="#697689" id="svg_69" opacity="1"/>
  <path d="m780,627.74c-0.27,0.11 -0.62,-0.05 -0.99,-0.52c0.3,-0.12 0.61,0.07 0.99,0.52z" fill="#697689" id="svg_70" opacity="1"/>
  <path d="m1431.43,629.23c0.17,0.04 0.09,-0.37 0.09,-0.37c0,0 -0.42,-0.1 -0.5,0.03c-0.07,0.14 0.24,0.31 0.41,0.34z" fill="#697689" id="svg_71" opacity="1"/>
  <path d="m1510.04,688.15c-0.39,0.08 -0.8,-0.19 -1.1,-0.84c0.44,-0.09 0.76,0.19 1.1,0.84z" fill="#657386" id="svg_72" opacity="1"/>
  <path d="m1550.03,781.11c-0.38,0.03 -0.78,-0.35 -1.12,-1.17c0.41,-0.04 0.75,0.37 1.12,1.17z" fill="#657386" id="svg_73" opacity="1"/>
  <path d="m794.01,643.73c-0.27,0.12 -0.62,-0.03 -1,-0.49c0.29,-0.13 0.6,0.04 1,0.49z" fill="#697689" id="svg_74" opacity="1"/>
  <path d="m1509.02,686.69c-0.31,0.14 -0.68,0.02 -1.03,-0.44c0.33,-0.17 0.65,0 1.03,0.44z" fill="#657386" id="svg_75" opacity="1"/>
  <path d="m857.38,716.63c-2.97,-4.13 -5.74,-7.96 -9.34,-12.93c3.73,-0.32 5.94,-0.68 8.15,-0.68c79.81,-0.05 159.62,-0.08 239.43,-0.1c19.09,0 38.19,0.01 57.29,0.08c1.87,0 3.74,0.42 6.75,0.79c-5.4,7.45 -10.03,14.07 -14.89,20.51c-14.34,19 -28.78,37.93 -43.15,56.9c-18.39,24.29 -36.76,48.59 -55.13,72.89c-12.75,16.86 -25.46,33.73 -38.24,50.56c-4.06,5.34 -4.37,5.21 -8.32,0.05c-20.14,-26.3 -40.4,-52.49 -60.47,-78.84c-14.52,-19.06 -28.8,-38.29 -43.19,-57.45c-12.9,-17.16 -25.8,-34.32 -38.89,-51.78z" fill="#214A6D" id="svg_76" opacity="1"/>
  <path d="m1003.96,974.53c9.84,-12.16 19.86,-24.19 29.48,-36.51c15.58,-19.95 30.94,-40.07 46.32,-60.18c18.71,-24.47 37.46,-48.92 55.99,-73.52c23.64,-31.39 47.18,-62.85 70.53,-94.45c7.09,-9.59 15.72,-15.69 27.7,-17.78c22.48,-3.91 45.11,-5.05 67.73,-3.29c17.38,1.35 34.8,3.79 51.85,7.41c36.65,7.8 70.22,23.05 100.15,45.69c14.17,10.72 25.89,24.06 35.48,39.03c9.15,14.29 18.62,28.49 26.27,43.58c9.55,18.84 17.99,38.3 25.84,57.91c21.34,53.34 36.8,108.56 49.61,164.44c8,34.89 14.85,70.12 20.23,105.49c5.7,37.51 9.93,75.29 13.15,113.1c2.47,29 3.21,58.22 3.14,87.33c-0.06,23.88 -3.09,47.71 -13.76,69.6c-12.99,26.66 -32.08,46.82 -62.49,52.67c-17.2,3.3 -33.55,-1.12 -49.56,-7.9c-23.06,-9.76 -38.38,-27.73 -52.09,-47.43c-21.78,-31.29 -43.25,-62.8 -64.72,-94.31c-17.82,-26.15 -35.08,-52.68 -53.26,-78.57c-14.17,-20.17 -31.77,-37.07 -52.36,-50.87c-26.28,-17.61 -55.05,-28.4 -86.42,-31.56c-14.2,-1.44 -28.6,-1.17 -42.92,-1.19c-30.66,-0.05 -61.32,0.36 -91.98,0.3c-17.98,-0.03 -35.96,-0.59 -54.44,-1.38c-0.53,-8.83 -0.57,-17.18 -0.55,-26.08c-0.01,-3.75 -0.08,-6.97 -0.01,-10.51c0.17,-46.75 0.2,-93.17 0.2,-139.6c0,-0.64 -0.26,-1.28 -0.3,-2.46c0.1,-2.01 0.11,-3.48 0.33,-4.77c0.36,0.32 0.5,0.45 0.88,0.88c0.4,1.95 0.71,3.59 0.71,5.23c0.03,56.16 0.03,112.32 0.04,168.48c0,7.2 0.53,7.74 7.6,7.75c54.16,0.03 108.32,0.07 162.48,0.09c41.96,0.01 79.43,13.66 113.08,38.07c20.4,14.78 37.13,33.28 51.14,54.22c16.93,25.31 33.81,50.65 50.83,75.9c14.05,20.85 28.18,41.64 42.43,62.35c13.86,20.15 27.53,40.39 45.12,57.71c6.7,6.6 13.89,8.57 22.62,7.45c1.98,-0.25 3.96,-0.52 5.95,-0.62c24.03,-1.27 43.51,-11.63 58.68,-29.99c14.74,-17.83 21.92,-39.25 26.24,-61.45c3.75,-19.25 6.47,-38.77 8.32,-58.29c2.64,-27.82 4.11,-55.75 5.97,-83.64c0.63,-9.46 0.93,-18.95 1.39,-28.42c1.04,-21.05 3.25,-41.9 -0.64,-63.12c-9.12,-49.69 -19.77,-98.98 -33.45,-147.59c-10.16,-36.07 -21.44,-71.8 -35.36,-106.63c-13.14,-32.88 -28.28,-64.76 -48.94,-93.65c-7.62,-10.67 -15.65,-21.34 -25.07,-30.37c-20.72,-19.85 -45.72,-33.23 -72.4,-43.36c-26.29,-9.98 -53.36,-16.61 -81.59,-18.15c-25.85,-1.42 -51.6,-1.54 -77.17,3.21c-7.95,1.47 -14.83,4.69 -19.81,11.38c-3.78,5.08 -7.92,9.88 -11.69,14.95c-13.82,18.56 -27.41,37.29 -41.35,55.76c-16.84,22.33 -34,44.42 -50.92,66.68c-17.23,22.65 -34.25,45.46 -51.53,68.07c-12.12,15.87 -24.45,31.6 -36.85,47.26c-4.92,6.22 -10.29,12.09 -15.6,17.83c-0.18,-0.92 -0.21,-1.55 -0.25,-2.18z" fill="#1C7E8C" id="svg_77" opacity="1"/>
  <path d="m1003.74,974.24c0.26,0.92 0.29,1.55 0.31,2.83c-0.11,1.18 -0.21,1.7 -0.31,2.22c-0.14,-0.12 -0.28,-0.25 -0.86,-0.76c-1.87,-2.6 -3.14,-4.95 -4.78,-7c-5.72,-7.15 -11.77,-14.04 -17.34,-21.31c-13.77,-17.96 -27.32,-36.09 -41.01,-54.12c-14.6,-19.22 -29.31,-38.37 -43.88,-57.61c-12.46,-16.46 -24.82,-32.99 -37.19,-49.52c-19.15,-25.6 -38.55,-51.02 -57.26,-76.93c-6.78,-9.4 -14.94,-15.66 -26.28,-17.16c-11.04,-1.47 -22.15,-2.33 -33.25,-3.28c-25.39,-2.17 -50.72,-0.56 -75.63,3.98c-28.63,5.22 -55.85,15.11 -81.56,29.07c-27.7,15.04 -50.21,35.74 -67.09,62.12c-11.2,17.5 -21.68,35.6 -30.78,54.26c-15.57,31.91 -28.09,65.17 -37.86,99.32c-10.98,38.42 -22.05,76.85 -31.38,115.69c-7.73,32.18 -13.3,64.91 -19.22,97.5c-3.42,18.83 -6.15,37.83 -8.25,56.85c-2.67,24.16 -4.48,48.41 -6.49,72.63c-2.31,27.76 -3.19,55.58 -0.63,83.35c1.1,11.98 4.16,23.73 11.36,33.74c5.14,7.15 10.89,13.87 16.45,20.72c15.91,19.58 37.03,30.31 61.45,34.16c11.4,1.8 23.26,0.54 34.85,1.46c10.81,0.85 19.52,-2.82 26.02,-10.96c14.43,-18.06 28.9,-36.13 42.43,-54.86c14.24,-19.7 27.43,-40.16 41.04,-60.31c9.13,-13.52 18.1,-27.16 27.32,-40.63c14.83,-21.66 27.38,-44.95 45.66,-64.17c12.55,-13.19 25.74,-25.6 41.5,-34.98c30.77,-18.31 63.63,-29.48 99.85,-29.43c52.17,0.06 104.33,-0.05 156.5,-0.02c15.06,0 13.94,1.24 14.04,-14.04c0.02,-3.48 0.87,-6.97 1.34,-10.45c0.05,8.36 0.09,16.71 0.16,25.49c-22.79,0.77 -45.61,1.31 -68.42,1.43c-34.5,0.17 -69,-0.28 -103.5,0.13c-47.77,0.57 -89.29,17.35 -125.01,49.08c-18.01,16.01 -31.83,35.18 -44.73,55.3c-13.48,21.02 -27.7,41.57 -41.76,62.22c-19.2,28.21 -38.42,56.42 -57.93,84.43c-6.17,8.86 -12.84,17.46 -20.05,25.5c-18.24,20.36 -40.99,33.09 -68.27,35.93c-20.33,2.11 -38.23,-4.92 -53.73,-18.37c-12.85,-11.15 -22.14,-24.81 -28.61,-40.29c-2.92,-6.99 -4.33,-14.66 -5.94,-22.13c-7.88,-36.74 -7.03,-73.86 -4.03,-110.96c2.39,-29.71 5.03,-59.43 8.65,-89.01c2.85,-23.28 6.91,-46.45 11.25,-69.52c5.22,-27.82 10.5,-55.68 17.24,-83.15c7.93,-32.33 16.98,-64.41 26.47,-96.32c6.64,-22.33 14.12,-44.48 22.53,-66.21c11.41,-29.52 24.63,-58.27 42.04,-84.92c9.86,-15.09 20.03,-29.91 33.04,-42.48c18.55,-17.94 40.27,-31.06 63.86,-41.24c33.74,-14.56 68.96,-22.53 105.71,-23.2c22.99,-0.43 45.99,-0.83 68.53,5.27c8.25,2.24 14.87,6.47 19.92,13.3c12.68,17.14 25.25,34.37 38.09,51.39c18.45,24.45 37.16,48.7 55.64,73.13c16.88,22.32 33.38,44.92 50.44,67.1c19.48,25.33 39.38,50.32 59.34,75.74z" fill="#8C2451" id="svg_78" opacity="1"/>
  <path d="m608.76,654.84c31.41,-11.85 63.35,-19.48 96.65,-20.72c3.82,-0.14 7.64,-0.69 11.46,-0.68c6.42,0 10.41,3.28 10.51,8.26c0.09,4.64 -3.91,8.09 -10.25,7.77c-25.14,-1.31 -49.53,3.37 -73.44,10.08c-33.3,9.34 -64.1,24.19 -91.73,45.29c-2.4,1.84 -5.56,3.66 -8.38,3.68c-2.42,0.02 -5.83,-2.04 -6.97,-4.16c-0.95,-1.79 -0.09,-5.78 1.45,-7.4c3.97,-4.19 8.46,-8.05 13.28,-11.25c18.05,-12 37.03,-22.37 57.42,-30.87z" fill="#5B6E87" id="svg_79" opacity="1"/>
  <path d="m1356.85,657.96c-22.24,-5.8 -44.37,-9.25 -67,-9c-6.36,0.07 -9.63,-2.31 -9.72,-6.8c-0.1,-4.68 4.03,-9.01 9.65,-8.69c13.44,0.78 26.89,1.73 40.25,3.41c31.17,3.91 60.92,13.09 88.8,27.38c15.92,8.17 30.79,18.39 46.02,27.87c2.19,1.36 4.51,3.44 5.39,5.72c0.96,2.47 1.41,6.4 0.07,8.16c-1.35,1.76 -5.21,2.26 -7.91,2.12c-2.07,-0.11 -4.21,-1.86 -6.05,-3.24c-20.22,-15.23 -42.31,-27.12 -65.82,-36.27c-10.82,-4.21 -22.17,-7.08 -33.68,-10.66z" fill="#5B6E87" id="svg_80" opacity="1"/>
  <path d="m362.05,1056.48c0,-0.44 0.46,-0.46 0.7,-0.47c0.08,1.03 -0.07,2.07 -0.41,3.32c-0.21,-0.66 -0.25,-1.53 -0.29,-2.85z" fill="#657386" id="svg_81" opacity="1"/>
  <path d="m1002.88,1136.06c-0.54,4.02 -1.39,7.51 -1.41,10.99c-0.1,15.28 1.02,14.04 -14.04,14.04c-52.17,-0.03 -104.33,0.08 -156.5,0.02c-36.22,-0.05 -69.08,11.12 -99.85,29.43c-15.76,9.38 -28.95,21.79 -41.5,34.98c-18.28,19.22 -30.83,42.51 -45.66,64.17c-9.22,13.47 -18.19,27.11 -27.32,40.63c-13.61,20.15 -26.8,40.61 -41.04,60.31c-13.53,18.73 -28,36.8 -42.43,54.86c-6.5,8.14 -15.21,11.81 -26.02,10.96c-11.59,-0.92 -23.45,0.34 -34.85,-1.46c-24.42,-3.85 -45.54,-14.58 -61.45,-34.16c-5.56,-6.85 -11.31,-13.57 -16.45,-20.72c-7.2,-10.01 -10.26,-21.76 -11.36,-33.74c-2.56,-27.77 -1.68,-55.59 0.63,-83.35c2.01,-24.22 3.82,-48.47 6.49,-72.63c2.1,-19.02 4.83,-38.02 8.25,-56.85c5.92,-32.59 11.49,-65.32 19.22,-97.5c9.33,-38.84 20.4,-77.27 31.38,-115.69c9.77,-34.15 22.29,-67.41 37.86,-99.32c9.1,-18.66 19.58,-36.76 30.78,-54.26c16.88,-26.38 39.39,-47.08 67.09,-62.12c25.71,-13.96 52.93,-23.85 81.56,-29.07c24.91,-4.54 50.24,-6.15 75.63,-3.98c11.1,0.95 22.21,1.81 33.25,3.28c11.34,1.5 19.5,7.76 26.28,17.16c18.71,25.91 38.11,51.33 57.26,76.93c12.37,16.53 24.73,33.06 37.19,49.52c14.57,19.24 29.28,38.39 43.88,57.61c13.69,18.03 27.24,36.16 41.01,54.12c5.57,7.27 11.62,14.16 17.34,21.31c1.64,2.05 2.91,4.4 4.56,6.81c0.22,1.67 0.21,3.14 -0.17,5.16c-0.61,1.64 -1.06,2.74 -1.06,3.85c-0.03,44.95 -0.04,89.9 0.03,134.85c0,1.23 0.82,2.45 1.26,3.67c0.08,3.22 0.15,6.44 0.16,10.19m-270.8,-297.55c0.01,-2.5 0,-5 0.03,-7.5c0.21,-15.37 -6.69,-22.49 -21.98,-22.51c-27.5,-0.03 -54.99,0 -82.49,0.04c-13.76,0.02 -21.02,7.24 -21.06,20.96c-0.04,17.49 0.08,34.99 0,52.48c-0.04,8.77 -0.71,9.43 -9.39,9.46c-17.49,0.07 -34.99,-0.09 -52.49,-0.01c-13.75,0.07 -21.33,7.75 -21.38,21.46c-0.08,26.66 -0.14,53.32 -0.15,79.98c0,16.36 7.86,23.51 24.3,23.14c17.31,-0.4 34.64,-0.28 51.95,-0.25c6.04,0.01 6.86,1.02 6.88,7.06c0.06,19.16 0.07,38.32 0.15,57.48c0.06,12.48 8.29,20.66 20.71,20.67c27.99,0.01 55.98,0.01 83.97,0.02c9.33,0.01 16.6,-4.38 19.49,-12.81c1.31,-3.83 1.42,-8.18 1.46,-12.3c0.15,-17.32 0.02,-34.65 0.09,-51.98c0.02,-6.85 0.91,-7.76 7.88,-7.8c17.16,-0.11 34.32,-0.13 51.48,-0.08c16.13,0.05 24.08,-7.71 24.07,-23.79c0,-25.83 -0.02,-51.65 -0.06,-77.48c-0.03,-15.74 -7.64,-23.34 -23.34,-23.33c-17.49,0.02 -34.99,0.13 -52.48,0.06c-6.77,-0.02 -7.55,-0.83 -7.58,-7.48c-0.09,-14.83 -0.04,-29.66 -0.06,-45.49z" fill="#E33369" id="svg_82" opacity="1"/>
  <path d="m1003.98,979.6c-0.14,-0.83 -0.04,-1.35 0.21,-2.24c5.33,-6.39 10.7,-12.26 15.62,-18.48c12.4,-15.66 24.73,-31.39 36.85,-47.26c17.28,-22.61 34.3,-45.42 51.53,-68.07c16.92,-22.26 34.08,-44.35 50.92,-66.68c13.94,-18.47 27.53,-37.2 41.35,-55.76c3.77,-5.07 7.91,-9.87 11.69,-14.95c4.98,-6.69 11.86,-9.91 19.81,-11.38c25.57,-4.75 51.32,-4.63 77.17,-3.21c28.23,1.54 55.3,8.17 81.59,18.15c26.68,10.13 51.68,23.51 72.4,43.36c9.42,9.03 17.45,19.7 25.07,30.37c20.66,28.89 35.8,60.77 48.94,93.65c13.92,34.83 25.2,70.56 35.36,106.63c13.68,48.61 24.33,97.9 33.45,147.59c3.89,21.22 1.68,42.07 0.64,63.12c-0.46,9.47 -0.76,18.96 -1.39,28.42c-1.86,27.89 -3.33,55.82 -5.97,83.64c-1.85,19.52 -4.57,39.04 -8.32,58.29c-4.32,22.2 -11.5,43.62 -26.24,61.45c-15.17,18.36 -34.65,28.72 -58.68,29.99c-1.99,0.1 -3.97,0.37 -5.95,0.62c-8.73,1.12 -15.92,-0.85 -22.62,-7.45c-17.59,-17.32 -31.26,-37.56 -45.12,-57.71c-14.25,-20.71 -28.38,-41.5 -42.43,-62.35c-17.02,-25.25 -33.9,-50.59 -50.83,-75.9c-14.01,-20.94 -30.74,-39.44 -51.14,-54.22c-33.65,-24.41 -71.12,-38.06 -113.08,-38.07c-54.16,-0.02 -108.32,-0.06 -162.48,-0.09c-7.07,-0.01 -7.6,-0.55 -7.6,-7.75c-0.01,-56.16 -0.01,-112.32 -0.04,-168.48c0,-1.64 -0.31,-3.28 -0.71,-5.23m272.49,-128.35c5.88,27.49 27.87,49.12 54.6,52.05c27.92,3.05 50.25,-7.63 64.55,-31.86c13.25,-22.46 12.41,-45.43 -2.18,-67.41c-15.65,-23.61 -46.85,-34.14 -73.01,-25.53c-32.93,10.83 -49.5,44.82 -43.96,72.75m216.07,135.81c2.01,-2.45 4.06,-4.86 6.02,-7.34c18.6,-23.57 18.76,-55.92 -2.7,-80.29c-21.59,-24.51 -52.65,-28.89 -81.11,-12.96c-33.72,18.88 -41.86,68.26 -15.99,96.95c25.14,27.87 65.55,29.66 93.78,3.64m-115.64,108.26c4.93,-4.89 10.59,-9.24 14.67,-14.76c13.9,-18.8 17.44,-39.43 7.78,-61.18c-10.4,-23.41 -28.25,-37.84 -54.17,-39.97c-29.94,-2.46 -53.84,13.96 -65.63,42.79c-11.76,28.73 1.84,62.08 28.26,76.97c23.19,13.07 46.32,10.8 69.09,-3.85m-163.27,-214.96c-15.65,5.15 -27.67,14.51 -36.16,28.93c-17.83,30.27 -8.2,68.49 23.1,87.24c30.23,18.11 67.08,8.77 86.27,-20.95c15.54,-24.06 13.79,-50.75 -3.47,-73.68c-15.43,-20.52 -45.73,-30.09 -69.74,-21.54z" fill="#31C2C7" id="svg_83" opacity="1"/>
  <path d="m1002.87,1125.55c-0.59,-0.9 -1.41,-2.12 -1.41,-3.35c-0.07,-44.95 -0.06,-89.9 -0.03,-134.85c0,-1.11 0.45,-2.21 0.96,-3.32c0.42,0.64 0.68,1.28 0.68,1.92c0,46.43 -0.03,92.85 -0.2,139.6z" fill="#8C2451" id="svg_84" opacity="1"/>
  <path d="m732.09,839.01c0.01,15.33 -0.04,30.16 0.05,44.99c0.03,6.65 0.81,7.46 7.58,7.48c17.49,0.07 34.99,-0.04 52.48,-0.06c15.7,-0.01 23.31,7.59 23.34,23.33c0.04,25.83 0.06,51.65 0.06,77.48c0.01,16.08 -7.94,23.84 -24.07,23.79c-17.16,-0.05 -34.32,-0.03 -51.48,0.08c-6.97,0.04 -7.86,0.95 -7.88,7.8c-0.07,17.33 0.06,34.66 -0.09,51.98c-0.04,4.12 -0.15,8.47 -1.46,12.3c-2.89,8.43 -10.16,12.82 -19.49,12.81c-27.99,-0.01 -55.98,-0.01 -83.97,-0.02c-12.42,-0.01 -20.65,-8.19 -20.71,-20.67c-0.08,-19.16 -0.09,-38.32 -0.15,-57.48c-0.02,-6.04 -0.84,-7.05 -6.88,-7.06c-17.31,-0.03 -34.64,-0.15 -51.95,0.25c-16.44,0.37 -24.3,-6.78 -24.3,-23.14c0.01,-26.66 0.07,-53.32 0.15,-79.98c0.05,-13.71 7.63,-21.39 21.38,-21.46c17.5,-0.08 35,0.08 52.49,0.01c8.68,-0.03 9.35,-0.69 9.39,-9.46c0.08,-17.49 -0.04,-34.99 0,-52.48c0.04,-13.72 7.3,-20.94 21.06,-20.96c27.5,-0.04 54.99,-0.07 82.49,-0.04c15.29,0.02 22.19,7.14 21.98,22.51c-0.03,2.5 -0.02,5 -0.02,8m-102.09,174.57c0.01,18.66 0.02,37.32 0.04,55.98c0.01,6.77 0.61,7.6 7.33,7.63c20.82,0.09 41.65,0.04 62.47,-0.02c8.6,-0.02 8.75,-0.08 8.8,-8.57c0.11,-17.99 0.2,-35.98 0.02,-53.96c-0.16,-16.24 4.8,-21.5 20.79,-21.5c18.16,-0.01 36.32,-0.03 54.48,-0.17c7.49,-0.05 8.2,-0.89 8.17,-8.46c-0.1,-20.31 -0.23,-40.63 -0.35,-60.94c-0.06,-9.02 -0.06,-9.08 -9.1,-9.11c-17.99,-0.07 -35.99,0.05 -53.98,-0.14c-13.77,-0.15 -20.06,-6.78 -20.08,-20.5c-0.01,-18.49 -0.19,-36.99 -0.04,-55.48c0.05,-4.98 -1.71,-6.71 -6.71,-6.66c-21.32,0.21 -42.65,0.1 -63.97,0.15c-7.07,0.01 -7.78,0.6 -7.78,7.71c0.02,17.99 0.16,35.98 0.33,53.97c0.13,13.77 -6.95,20.95 -20.83,20.93c-18,-0.03 -35.99,-0.08 -53.98,-0.11c-8.01,-0.01 -8.66,0.49 -8.7,8.4c-0.12,20.99 -0.11,41.98 -0.08,62.97c0.01,6.54 0.73,7.29 7.14,7.31c18.66,0.09 37.32,0.06 55.98,0.07c14.01,0.01 19.85,5.69 20.05,20.5z" fill="#192243" id="svg_85" opacity="1"/>
  <path d="m1276.39,850.83c-5.46,-27.51 11.11,-61.5 44.04,-72.33c26.16,-8.61 57.36,1.92 73.01,25.53c14.59,21.98 15.43,44.95 2.18,67.41c-14.3,24.23 -36.63,34.91 -64.55,31.86c-26.73,-2.93 -48.72,-24.56 -54.68,-52.47m44.99,30.39c13.14,5.84 26,5.66 38.92,-1.02c16.01,-8.29 27,-27.11 25.34,-44.25c-1.79,-18.55 -15.67,-35.05 -33.62,-40c-22.8,-6.28 -46.43,5.91 -54.99,28.38c-8.23,21.58 1.77,45.47 24.35,56.89z" fill="#112B44" id="svg_86" opacity="1"/>
  <path d="m1492.3,987.31c-27.99,25.77 -68.4,23.98 -93.54,-3.89c-25.87,-28.69 -17.73,-78.07 15.99,-96.95c28.46,-15.93 59.52,-11.55 81.11,12.96c21.46,24.37 21.3,56.72 2.7,80.29c-1.96,2.48 -4.01,4.89 -6.26,7.59m-36.02,-90.28c-15.23,-2.59 -28.71,0.67 -40.04,11.65c-17.19,16.67 -19.08,43.99 -4.12,61.17c17.03,19.58 44.85,22.73 64.09,6.81c14.37,-11.9 19.77,-27.5 15.41,-45.63c-4.37,-18.17 -16.66,-29.02 -35.34,-34z" fill="#112B45" id="svg_87" opacity="1"/>
  <path d="m1376.6,1095.52c-22.47,14.45 -45.6,16.72 -68.79,3.65c-26.42,-14.89 -40.02,-48.24 -28.26,-76.97c11.79,-28.83 35.69,-45.25 65.63,-42.79c25.92,2.13 43.77,16.56 54.17,39.97c9.66,21.75 6.12,42.38 -7.78,61.18c-4.08,5.52 -9.74,9.87 -14.97,14.96m-27.25,-96.59c-20.58,-3.92 -40.27,5.27 -50.25,23.46c-8.68,15.79 -6.16,37.71 5.8,50.41c15.87,16.87 34.58,20.69 54.74,11.18c16.79,-7.92 27.79,-26.94 25.89,-44.76c-2.07,-19.42 -16.22,-35.47 -36.18,-40.29z" fill="#112B44" id="svg_88" opacity="1"/>
  <path d="m1214,880.23c23.64,-8.42 53.94,1.15 69.37,21.67c17.26,22.93 19.01,49.62 3.47,73.68c-19.19,29.72 -56.04,39.06 -86.27,20.95c-31.3,-18.75 -40.93,-56.97 -23.1,-87.24c8.49,-14.42 20.51,-23.78 36.53,-29.06m-18.95,36.39c-16.03,23.9 -6.91,54.34 19.86,66.23c24.49,10.88 52.71,-1.74 61.47,-27.49c8.17,-24.01 -6.89,-51.58 -31.99,-57.62c-20.18,-4.86 -36.73,1.18 -49.34,18.88z" fill="#112A45" id="svg_89" opacity="1"/>
  <path d="m630,1013.1c-0.2,-14.33 -6.04,-20.01 -20.05,-20.02c-18.66,-0.01 -37.32,0.02 -55.98,-0.07c-6.41,-0.02 -7.13,-0.77 -7.14,-7.31c-0.03,-20.99 -0.04,-41.98 0.08,-62.97c0.04,-7.91 0.69,-8.41 8.7,-8.4c17.99,0.03 35.98,0.08 53.98,0.11c13.88,0.02 20.96,-7.16 20.83,-20.93c-0.17,-17.99 -0.31,-35.98 -0.33,-53.97c0,-7.11 0.71,-7.7 7.78,-7.71c21.32,-0.05 42.65,0.06 63.97,-0.15c5,-0.05 6.76,1.68 6.71,6.66c-0.15,18.49 0.03,36.99 0.04,55.48c0.02,13.72 6.31,20.35 20.08,20.5c17.99,0.19 35.99,0.07 53.98,0.14c9.04,0.03 9.04,0.09 9.1,9.11c0.12,20.31 0.25,40.63 0.35,60.94c0.03,7.57 -0.68,8.41 -8.17,8.46c-18.16,0.14 -36.32,0.16 -54.48,0.17c-15.99,0 -20.95,5.26 -20.79,21.5c0.18,17.98 0.09,35.97 -0.02,53.96c-0.05,8.49 -0.2,8.55 -8.8,8.57c-20.82,0.06 -41.65,0.11 -62.47,0.02c-6.72,-0.03 -7.32,-0.86 -7.33,-7.63c-0.02,-18.66 -0.03,-37.32 -0.04,-56.46z" fill="#E03269" id="svg_90" opacity="1"/>
  <path d="m1321.04,881.06c-22.24,-11.26 -32.24,-35.15 -24.01,-56.73c8.56,-22.47 32.19,-34.66 54.99,-28.38c17.95,4.95 31.83,21.45 33.62,40c1.66,17.14 -9.33,35.96 -25.34,44.25c-12.92,6.68 -25.78,6.86 -39.26,0.86z" fill="#FAB340" id="svg_91" opacity="1"/>
  <path d="m1456.69,897.13c18.27,4.88 30.56,15.73 34.93,33.9c4.36,18.13 -1.04,33.73 -15.41,45.63c-19.24,15.92 -47.06,12.77 -64.09,-6.81c-14.96,-17.18 -13.07,-44.5 4.12,-61.17c11.33,-10.98 24.81,-14.24 40.45,-11.55z" fill="#FAB340" id="svg_92" opacity="1"/>
  <path d="m1349.77,999.02c19.54,4.73 33.69,20.78 35.76,40.2c1.9,17.82 -9.1,36.84 -25.89,44.76c-20.16,9.51 -38.87,5.69 -54.74,-11.18c-11.96,-12.7 -14.48,-34.62 -5.8,-50.41c9.98,-18.19 29.67,-27.38 50.67,-23.37z" fill="#FAB340" id="svg_93" opacity="1"/>
  <path d="m1195.26,916.32c12.4,-17.4 28.95,-23.44 49.13,-18.58c25.1,6.04 40.16,33.61 31.99,57.62c-8.76,25.75 -36.98,38.37 -61.47,27.49c-26.77,-11.89 -35.89,-42.33 -19.65,-66.53z" fill="#FAB340" id="svg_94" opacity="1"/>
 </g>
</svg>